<svg width="87" height="87" viewBox="0 0 87 87" fill="none" xmlns="http://www.w3.org/2000/svg">
<path fill-rule="evenodd" clip-rule="evenodd" d="M66.7214 19.1833C67.9785 20.44 68.9595 21.9453 69.6013 23.6029C70.3415 25.5694 70.7364 27.6491 70.7687 29.7501C70.9239 32.4036 70.9239 33.2631 70.9239 40.037C70.9239 46.8108 70.8879 47.6565 70.7687 50.3238C70.7271 52.3979 70.3361 54.4441 69.6069 56.3851C68.9641 58.0425 67.9829 59.5477 66.7259 60.8048C65.4689 62.0618 63.9637 63.043 62.3062 63.6857C60.366 64.4126 58.3165 64.8054 56.245 64.8475C53.597 65 52.7292 65 45.9581 65C39.1871 65 38.3414 64.964 35.6712 64.8475C33.5955 64.7792 31.5466 64.3573 29.6128 63.5998C27.9549 62.9581 26.449 61.9776 25.1915 60.721C23.9339 59.4644 22.9523 57.9593 22.3094 56.3019C21.5801 54.3582 21.1892 52.3119 21.1476 50.2379C20.9923 47.5844 20.9923 46.722 20.9923 39.951C20.9923 33.1772 21.0284 32.3315 21.1476 29.6641C21.1881 27.5924 21.581 25.5427 22.3094 23.6029C22.9505 21.9448 23.9312 20.4391 25.1884 19.1824C26.4457 17.9256 27.9517 16.9455 29.61 16.305C31.5475 15.5747 33.5955 15.1808 35.6657 15.1405C38.3137 14.9907 39.1815 14.9907 45.9526 14.9907C52.7236 14.9907 53.5693 15.024 56.2395 15.1405C58.3112 15.183 60.3607 15.5768 62.3007 16.305C63.9585 16.9463 65.4642 17.9266 66.7214 19.1833ZM65.3618 54.7131C65.9146 53.2137 66.2063 51.6307 66.2241 50.0327V50.0355H66.2546C66.3739 47.3848 66.3739 46.6583 66.3739 39.9045V39.9039C66.3739 33.1467 66.3434 32.4064 66.2241 29.7695C66.1983 28.1894 65.9068 26.625 65.3618 25.1418C64.9451 24.0634 64.3076 23.084 63.4901 22.2665C62.6726 21.449 61.6933 20.8115 60.6149 20.3948C59.1324 19.8432 57.566 19.5515 55.9844 19.5325C53.3031 19.38 52.6099 19.38 45.8528 19.38C39.0956 19.38 38.3553 19.4133 35.7184 19.5325C34.138 19.5546 32.5729 19.8462 31.0907 20.3948C28.903 21.2322 27.17 22.9541 26.3243 25.1418C25.7716 26.6402 25.4799 28.2223 25.462 29.8194C25.315 32.5062 25.315 33.1966 25.315 39.9538C25.315 46.7082 25.3427 47.4513 25.462 50.0854C25.4878 51.6654 25.7793 53.2298 26.3243 54.7131C26.7425 55.7934 27.3829 56.7739 28.2039 57.5911C29.025 58.4083 30.0084 59.0441 31.0907 59.4573C32.5722 60.0085 34.1377 60.3003 35.7184 60.3196C38.4024 60.4721 39.0928 60.4721 45.8528 60.4721C52.6072 60.4721 53.3503 60.4416 55.9844 60.3196C57.5658 60.2992 59.1321 60.0075 60.6149 59.4573C61.6933 59.0415 62.6729 58.4046 63.4904 57.5876C64.3079 56.7705 64.9454 55.7913 65.3618 54.7131ZM59.2674 29.6308C60.9182 29.6308 62.2564 28.2926 62.2564 26.6418C62.2564 24.991 60.9182 23.6527 59.2674 23.6527C57.6166 23.6527 56.2784 24.991 56.2784 26.6418C56.2784 28.2926 57.6166 29.6308 59.2674 29.6308ZM45.9388 27.1134C42.5384 27.1134 39.2773 28.4642 36.8729 30.8686C34.4684 33.2731 33.1176 36.5342 33.1176 39.9346C33.1176 43.3349 34.4684 46.5961 36.8729 49.0005C39.2773 51.4049 42.5384 52.7557 45.9388 52.7557C49.3392 52.7557 52.6003 51.4049 55.0048 49.0005C57.4092 46.5961 58.76 43.3349 58.76 39.9346C58.76 36.5342 57.4092 33.2731 55.0048 30.8686C52.6003 28.4642 49.3392 27.1134 45.9388 27.1134ZM45.9388 48.2611C43.7297 48.2611 41.6111 47.3836 40.0491 45.8215C38.487 44.2595 37.6095 42.1409 37.6095 39.9318C37.6095 37.7227 38.487 35.6041 40.0491 34.0421C41.6111 32.48 43.7297 31.6025 45.9388 31.6025C48.1479 31.6025 50.2665 32.48 51.8285 34.0421C53.3906 35.6041 54.2681 37.7227 54.2681 39.9318C54.2681 42.1409 53.3906 44.2595 51.8285 45.8215C50.2665 47.3836 48.1479 48.2611 45.9388 48.2611Z" fill="white"/>
<g filter="url(#filter0_bi_202_14)">
<circle cx="43.5" cy="43.5" r="43.5" fill="#0096C7"/>
</g>
<path fill-rule="evenodd" clip-rule="evenodd" d="M58.1756 29.7666C59.0052 30.5958 59.6525 31.5892 60.076 32.683C60.5644 33.9807 60.825 35.353 60.8463 36.7394C60.9488 38.4904 60.9488 39.0576 60.9488 43.5275C60.9488 47.9974 60.925 48.5554 60.8463 50.3156C60.8189 51.6842 60.5609 53.0345 60.0797 54.3152C59.6556 55.4089 59.0081 56.4022 58.1786 57.2317C57.3491 58.0612 56.3559 58.7086 55.2622 59.1328C53.9818 59.6124 52.6295 59.8716 51.2625 59.8994C49.5152 60 48.9425 60 44.4744 60C40.0063 60 39.4483 59.9762 37.6863 59.8994C36.3166 59.8544 34.9645 59.5759 33.6885 59.076C32.5944 58.6526 31.6008 58.0056 30.7709 57.1764C29.9411 56.3472 29.2934 55.3541 28.8691 54.2603C28.3879 52.9777 28.1299 51.6274 28.1025 50.2588C28 48.5078 28 47.9388 28 43.4707C28 39.0008 28.0238 38.4428 28.1025 36.6826C28.1292 35.3156 28.3884 33.963 28.8691 32.683C29.2922 31.5889 29.9393 30.5953 30.7689 29.766C31.5985 28.9367 32.5924 28.2899 33.6866 27.8673C34.9651 27.3853 36.3166 27.1254 37.6826 27.0988C39.43 27 40.0027 27 44.4707 27C48.9388 27 49.4969 27.022 51.2588 27.0988C52.6259 27.1269 53.9784 27.3867 55.2585 27.8673C56.3525 28.2904 57.3461 28.9373 58.1756 29.7666ZM57.2785 53.2119C57.6432 52.2225 57.8357 51.1779 57.8475 50.1234V50.1253H57.8676C57.9463 48.3761 57.9463 47.8968 57.9463 43.44V43.4396C57.9463 38.9807 57.9262 38.4922 57.8475 36.7522C57.8305 35.7096 57.6381 34.6772 57.2785 33.6984C57.0035 32.9868 56.5828 32.3406 56.0434 31.8011C55.5039 31.2617 54.8577 30.841 54.1461 30.566C53.1678 30.2021 52.1342 30.0096 51.0905 29.997C49.3212 29.8964 48.8638 29.8964 44.4049 29.8964C39.946 29.8964 39.4574 29.9183 37.7174 29.997C36.6745 30.0116 35.6418 30.204 34.6637 30.566C33.2201 31.1186 32.0765 32.2548 31.5185 33.6984C31.1537 34.6872 30.9613 35.7313 30.9494 36.7851C30.8525 38.5581 30.8525 39.0137 30.8525 43.4725V43.4726C30.8525 47.9297 30.8708 48.42 30.9494 50.1582C30.9665 51.2008 31.1588 52.2332 31.5185 53.2119C31.7944 53.9248 32.217 54.5718 32.7588 55.1111C33.3006 55.6503 33.9495 56.0699 34.6637 56.3425C35.6413 56.7063 36.6744 56.8988 37.7174 56.9115C39.4885 57.0122 39.9441 57.0122 44.4049 57.0122C48.862 57.0122 49.3523 56.9921 51.0905 56.9115C52.1341 56.8981 53.1676 56.7056 54.1461 56.3425C54.8577 56.0682 55.5041 55.6479 56.0436 55.1087C56.5831 54.5696 57.0037 53.9234 57.2785 53.2119ZM53.2569 36.6607C54.3462 36.6607 55.2293 35.7776 55.2293 34.6883C55.2293 33.599 54.3462 32.7159 53.2569 32.7159C52.1676 32.7159 51.2845 33.599 51.2845 34.6883C51.2845 35.7776 52.1676 36.6607 53.2569 36.6607ZM44.4616 34.9994C42.2178 34.9994 40.0658 35.8908 38.4792 37.4774C36.8926 39.0641 36.0012 41.216 36.0012 43.4599C36.0012 45.7037 36.8926 47.8556 38.4792 49.4423C40.0658 51.0289 42.2178 51.9203 44.4616 51.9203C46.7055 51.9203 48.8574 51.0289 50.444 49.4423C52.0307 47.8556 52.922 45.7037 52.922 43.4599C52.922 41.216 52.0307 39.0641 50.444 37.4774C48.8574 35.8908 46.7055 34.9994 44.4616 34.9994ZM44.4616 48.9544C43.0039 48.9544 41.6059 48.3753 40.5751 47.3445C39.5444 46.3138 38.9653 44.9157 38.9653 43.458C38.9653 42.0003 39.5444 40.6023 40.5751 39.5715C41.6059 38.5408 43.0039 37.9617 44.4616 37.9617C45.9193 37.9617 47.3174 38.5408 48.3481 39.5715C49.3789 40.6023 49.958 42.0003 49.958 43.458C49.958 44.9157 49.3789 46.3138 48.3481 47.3445C47.3174 48.3753 45.9193 48.9544 44.4616 48.9544Z" fill="white"/>
<defs>
<filter id="filter0_bi_202_14" x="-30" y="-30" width="147" height="147" filterUnits="userSpaceOnUse" color-interpolation-filters="sRGB">
<feFlood flood-opacity="0" result="BackgroundImageFix"/>
<feGaussianBlur in="BackgroundImageFix" stdDeviation="15"/>
<feComposite in2="SourceAlpha" operator="in" result="effect1_backgroundBlur_202_14"/>
<feBlend mode="normal" in="SourceGraphic" in2="effect1_backgroundBlur_202_14" result="shape"/>
<feColorMatrix in="SourceAlpha" type="matrix" values="0 0 0 0 0 0 0 0 0 0 0 0 0 0 0 0 0 0 127 0" result="hardAlpha"/>
<feOffset dy="2"/>
<feGaussianBlur stdDeviation="2"/>
<feComposite in2="hardAlpha" operator="arithmetic" k2="-1" k3="1"/>
<feColorMatrix type="matrix" values="0 0 0 0 1 0 0 0 0 1 0 0 0 0 1 0 0 0 0.1 0"/>
<feBlend mode="normal" in2="shape" result="effect2_innerShadow_202_14"/>
</filter>
</defs>
</svg>
