<svg xmlns="http://www.w3.org/2000/svg" viewBox="0 0 500 500"><g id="freepik--Notes--inject-58"><rect x="62.05" y="96.79" width="107.09" height="105.2" transform="translate(10.16 -7.33) rotate(3.8)" style="fill:#fff"></rect><path d="M165.54,205.92h0l-106.86-7.1a.5.5,0,0,1-.47-.53l7-105a.47.47,0,0,1,.17-.34.48.48,0,0,1,.36-.12L172.55,100a.49.49,0,0,1,.46.53l-7,105a.51.51,0,0,1-.17.35A.5.5,0,0,1,165.54,205.92ZM59.21,197.85l105.86,7,6.91-104-105.86-7Z" style="fill:#263238"></path><rect x="114.43" y="90.92" width="1" height="73.02" transform="translate(-20.27 233.12) rotate(-85.97)" style="fill:#263238"></rect><rect x="115.07" y="100.88" width="1" height="76.86" transform="matrix(0.07, -1, 1, 0.07, -31.14, 245.31)" style="fill:#263238"></rect><rect x="113.79" y="118.88" width="1" height="75.19" transform="translate(-53.49 253.41) rotate(-83.88)" style="fill:#263238"></rect><rect x="76.26" y="167.68" width="56.47" height="1" style="fill:#263238"></rect><rect x="109.39" y="192.13" width="107.09" height="105.2" transform="translate(-27.88 21.06) rotate(-6.81)" style="fill:#fff"></rect><path d="M116,303.8a.5.5,0,0,1-.5-.44L103,198.91a.53.53,0,0,1,.1-.37.58.58,0,0,1,.34-.19l106.34-12.7a.49.49,0,0,1,.55.44l12.48,104.45a.5.5,0,0,1-.1.37.52.52,0,0,1-.34.18L116.07,303.8ZM104.08,199.29l12.36,103.46,105.35-12.59L209.43,186.7Z" style="fill:#263238"></path><rect x="130.85" y="214.69" width="76.93" height="1" transform="translate(-24.82 22.1) rotate(-6.96)" style="fill:#263238"></rect><rect x="130.01" y="228.33" width="78.29" height="1" transform="translate(-33.47 29.03) rotate(-8.93)" style="fill:#263238"></rect><rect x="133.33" y="243.73" width="73.25" height="1" transform="translate(-43.83 37.27) rotate(-11.1)" style="fill:#263238"></rect><rect x="134.69" y="260.26" width="75.34" height="1" transform="translate(-30.78 23.2) rotate(-7.07)" style="fill:#263238"></rect><path d="M89.83,108.46a1,1,0,0,1-.79-.38L86.63,105a1,1,0,0,1,1.57-1.24l2.41,3.07a1,1,0,0,1-.16,1.41A1,1,0,0,1,89.83,108.46Z" style="fill:#263238"></path><circle cx="83.43" cy="99.12" r="8.22" transform="translate(-45.65 88.03) rotate(-45)" style="fill:#3F78F7"></circle><path d="M83.43,107.84a8.72,8.72,0,1,1,8.72-8.72A8.74,8.74,0,0,1,83.43,107.84Zm0-16.44a7.72,7.72,0,1,0,7.72,7.72A7.73,7.73,0,0,0,83.43,91.4Z" style="fill:#263238"></path><path d="M87,96.94a5.09,5.09,0,1,1-5.08-5.09A5.08,5.08,0,0,1,87,96.94Z" style="fill:#3F78F7"></path><path d="M81.94,102.52a5.59,5.59,0,1,1,5.58-5.58A5.59,5.59,0,0,1,81.94,102.52Zm0-10.17a4.59,4.59,0,1,0,4.58,4.59A4.6,4.6,0,0,0,81.94,92.35Z" style="fill:#263238"></path><path d="M86.43,93.43a7.13,7.13,0,1,1-7.13-7.12A7.13,7.13,0,0,1,86.43,93.43Z" style="fill:#3F78F7"></path><path d="M79.3,101.05a7.62,7.62,0,1,1,7.63-7.62A7.63,7.63,0,0,1,79.3,101.05Zm0-14.24a6.62,6.62,0,1,0,6.63,6.62A6.63,6.63,0,0,0,79.3,86.81Z" style="fill:#263238"></path><path d="M189.94,197.66a1,1,0,0,1-.79-.38l-2.41-3.07a1,1,0,1,1,1.57-1.23l2.42,3.07a1,1,0,0,1-.17,1.4A1,1,0,0,1,189.94,197.66Z" style="fill:#263238"></path><circle cx="183.55" cy="188.32" r="8.22" transform="translate(-42.02 323.5) rotate(-76.67)" style="fill:#3F78F7"></circle><path d="M183.55,197a8.72,8.72,0,1,1,8.71-8.72A8.73,8.73,0,0,1,183.55,197Zm0-16.44a7.72,7.72,0,1,0,7.71,7.72A7.72,7.72,0,0,0,183.55,180.6Z" style="fill:#263238"></path><path d="M187.13,186.14a5.09,5.09,0,1,1-5.08-5.09A5.07,5.07,0,0,1,187.13,186.14Z" style="fill:#3F78F7"></path><path d="M182.05,191.73a5.59,5.59,0,1,1,5.58-5.59A5.6,5.6,0,0,1,182.05,191.73Zm0-10.18a4.59,4.59,0,1,0,4.58,4.59A4.6,4.6,0,0,0,182.05,181.55Z" style="fill:#263238"></path><path d="M186.54,182.63a7.13,7.13,0,1,1-7.12-7.12A7.12,7.12,0,0,1,186.54,182.63Z" style="fill:#3F78F7"></path><path d="M179.42,190.25a7.62,7.62,0,1,1,7.62-7.62A7.62,7.62,0,0,1,179.42,190.25Zm0-14.24a6.62,6.62,0,1,0,6.62,6.62A6.63,6.63,0,0,0,179.42,176Z" style="fill:#263238"></path></g><g id="freepik--Folder--inject-58"><path d="M240.19,103.32l-1.59,19.77a11.76,11.76,0,0,1-3.81,7.76l-4.31,3.91a14,14,0,0,0-4.56,9.35l-3.67,50.57a14,14,0,0,0,5.27,12h0a11.72,11.72,0,0,1,4.42,10.06L214.11,462,446,478.89,472,120.17Z" style="fill:#3F78F7"></path><path d="M446,479.39h0L214.07,462.53a.51.51,0,0,1-.34-.17.48.48,0,0,1-.12-.36l17.84-245.29a11.27,11.27,0,0,0-4.24-9.64,14.48,14.48,0,0,1-5.46-12.42l3.67-50.57a14.49,14.49,0,0,1,4.72-9.69l4.31-3.91a11.24,11.24,0,0,0,3.65-7.43l1.59-19.77a.5.5,0,0,1,.54-.46l231.84,16.86a.51.51,0,0,1,.47.53L446.45,478.93A.5.5,0,0,1,446,479.39ZM214.64,461.57l230.85,16.79,26-357.72L240.65,103.85l-1.55,19.28a12.17,12.17,0,0,1-4,8.09l-4.31,3.91a13.44,13.44,0,0,0-4.39,9l-3.67,50.57a13.47,13.47,0,0,0,5.08,11.57,12.23,12.23,0,0,1,4.61,10.49Z" style="fill:#263238"></path><rect x="210.95" y="110.91" width="79.58" height="335.99" transform="translate(-2.02 1.83) rotate(-0.42)" style="fill:#fff"></rect><path d="M212.17,447.68a.5.5,0,0,1-.5-.5l-2.44-336a.51.51,0,0,1,.5-.5l79.58-.58a.67.67,0,0,1,.35.15.51.51,0,0,1,.15.35l2.44,336a.51.51,0,0,1-.5.5l-79.57.58Zm-1.93-336,2.43,335,78.57-.57-2.43-335Z" style="fill:#263238"></path><rect x="227.66" y="115.34" width="79.58" height="335.99" transform="translate(-2.05 1.95) rotate(-0.42)" style="fill:#fff"></rect><path d="M228.88,452.11a.49.49,0,0,1-.5-.49l-2.44-336a.5.5,0,0,1,.14-.35.49.49,0,0,1,.36-.15l79.57-.58h0a.5.5,0,0,1,.5.5L309,451a.52.52,0,0,1-.14.36.53.53,0,0,1-.36.15l-79.57.57Zm-1.94-336,2.43,335,78.58-.57-2.43-335Z" style="fill:#263238"></path><path d="M244.61,103.64,243,123.41a11.76,11.76,0,0,1-3.81,7.76l-4.31,3.91a14.08,14.08,0,0,0-4.56,9.36L226.67,195a14,14,0,0,0,5.27,12h0a11.76,11.76,0,0,1,4.43,10.06L218.53,462.35l231.84,16.86L476.46,120.5Z" style="fill:#3F78F7"></path><path d="M450.37,479.71h0L218.49,462.85a.51.51,0,0,1-.34-.17.52.52,0,0,1-.12-.36L235.87,217a11.24,11.24,0,0,0-4.24-9.63A14.5,14.5,0,0,1,226.17,195l3.68-50.57a14.45,14.45,0,0,1,4.71-9.69l4.31-3.91a11.19,11.19,0,0,0,3.65-7.42l1.59-19.78a.5.5,0,0,1,.54-.46L476.49,120a.5.5,0,0,1,.47.53L450.87,479.25A.5.5,0,0,1,450.37,479.71Zm-231.3-17.82,230.84,16.79,26-357.72L245.07,104.17l-1.55,19.29a12.17,12.17,0,0,1-4,8.08l-4.31,3.91a13.53,13.53,0,0,0-4.39,9L227.17,195a13.47,13.47,0,0,0,5.08,11.57,12.23,12.23,0,0,1,4.61,10.49Z" style="fill:#263238"></path></g><g id="freepik--Notebook--inject-58"><rect x="247.33" y="173.93" width="212.72" height="304.88" style="fill:#fff"></rect><path d="M460.05,481.31H247.33a2.5,2.5,0,0,1-2.5-2.5V173.93a2.5,2.5,0,0,1,2.5-2.5H460.05a2.5,2.5,0,0,1,2.5,2.5V478.81A2.5,2.5,0,0,1,460.05,481.31Zm-210.22-5H457.55V176.43H249.83Z" style="fill:#263238"></path><rect x="249.59" y="172.28" width="210.46" height="308.23" style="fill:#fff"></rect><path d="M460.05,481H249.59a.5.5,0,0,1-.5-.5V172.28a.5.5,0,0,1,.5-.5H460.05a.5.5,0,0,1,.5.5V480.51A.5.5,0,0,1,460.05,481Zm-210-1H459.55V172.78H250.09Z" style="fill:#263238"></path><path d="M453.68,188.78a.5.5,0,0,1-.5-.5V173.35a.5.5,0,0,1,.5-.5.51.51,0,0,1,.5.5v14.93A.51.51,0,0,1,453.68,188.78Z" style="fill:#263238"></path><path d="M455.93,250a.5.5,0,0,1-.5-.5V182.1a.51.51,0,0,1,.5-.5.5.5,0,0,1,.5.5v67.41A.5.5,0,0,1,455.93,250Z" style="fill:#263238"></path><path d="M453.66,267a.5.5,0,0,1-.5-.5V202.17a.5.5,0,0,1,.5-.5.5.5,0,0,1,.5.5v64.32A.5.5,0,0,1,453.66,267Z" style="fill:#263238"></path><path d="M455.93,410a.5.5,0,0,1-.5-.5V292.22a.51.51,0,0,1,.5-.5.5.5,0,0,1,.5.5V409.54A.5.5,0,0,1,455.93,410Z" style="fill:#263238"></path><path d="M453.32,421.37a.5.5,0,0,1-.5-.5V389a.5.5,0,0,1,1,0v31.91A.5.5,0,0,1,453.32,421.37Z" style="fill:#263238"></path><rect x="240.87" y="172.28" width="210.46" height="308.23" style="fill:#fff"></rect><path d="M451.34,481H240.87a.5.5,0,0,1-.5-.5V172.28a.5.5,0,0,1,.5-.5H451.34a.5.5,0,0,1,.5.5V480.51A.5.5,0,0,1,451.34,481Zm-210-1H450.84V172.78H241.37Z" style="fill:#263238"></path><circle cx="276.48" cy="182.45" r="4.13" style="fill:#fff"></circle><path d="M276.48,187.09a4.64,4.64,0,1,1,4.63-4.64A4.63,4.63,0,0,1,276.48,187.09Zm0-8.27a3.64,3.64,0,1,0,3.63,3.63A3.64,3.64,0,0,0,276.48,178.82Z" style="fill:#263238"></path><circle cx="312.71" cy="182.45" r="4.13" style="fill:#fff"></circle><path d="M312.71,187.09a4.64,4.64,0,1,1,4.63-4.64A4.63,4.63,0,0,1,312.71,187.09Zm0-8.27a3.64,3.64,0,1,0,3.63,3.63A3.64,3.64,0,0,0,312.71,178.82Z" style="fill:#263238"></path><circle cx="348.94" cy="182.45" r="4.13" style="fill:#fff"></circle><path d="M348.94,187.09a4.64,4.64,0,1,1,4.63-4.64A4.64,4.64,0,0,1,348.94,187.09Zm0-8.27a3.64,3.64,0,1,0,3.63,3.63A3.64,3.64,0,0,0,348.94,178.82Z" style="fill:#263238"></path><circle cx="385.17" cy="182.45" r="4.13" style="fill:#fff"></circle><path d="M385.17,187.09a4.64,4.64,0,1,1,4.63-4.64A4.63,4.63,0,0,1,385.17,187.09Zm0-8.27a3.64,3.64,0,1,0,3.63,3.63A3.64,3.64,0,0,0,385.17,178.82Z" style="fill:#263238"></path><circle cx="421.4" cy="182.45" r="4.13" style="fill:#fff"></circle><path d="M421.4,187.09a4.64,4.64,0,1,1,4.63-4.64A4.64,4.64,0,0,1,421.4,187.09Zm0-8.27a3.64,3.64,0,1,0,3.63,3.63A3.64,3.64,0,0,0,421.4,178.82Z" style="fill:#263238"></path><path d="M273.33,158.6a10.78,10.78,0,0,1,10.78,10.77,10.51,10.51,0,0,1-.22,2.17,1.18,1.18,0,0,0,.05.65h2.33c0-.05,0-.1,0-.15a13.25,13.25,0,1,0-13,10.58,1.24,1.24,0,1,0,0-2.47,10.78,10.78,0,0,1,0-21.55Z" style="fill:#263238"></path><path d="M278.25,180.15A10.78,10.78,0,1,1,289,169.37a10.68,10.68,0,0,1-.22,2.18,1.26,1.26,0,0,0,.05.64h2.33c0-.05,0-.1,0-.15a13.25,13.25,0,1,0-13,10.58,1.24,1.24,0,1,0,0-2.47Z" style="fill:#263238"></path><path d="M309.23,158.6a10.78,10.78,0,0,1,10.55,13,1.26,1.26,0,0,0,.05.64h2.33a.88.88,0,0,0,0-.15,13.25,13.25,0,1,0-13,10.58,1.24,1.24,0,0,0,0-2.47,10.78,10.78,0,1,1,0-21.55Z" style="fill:#263238"></path><path d="M314.15,180.15a10.78,10.78,0,1,1,10.77-10.78,10.51,10.51,0,0,1-.22,2.17,1.29,1.29,0,0,0,.05.65h2.33a.88.88,0,0,0,.05-.15,13.25,13.25,0,1,0-13,10.58,1.24,1.24,0,0,0,0-2.47Z" style="fill:#263238"></path><path d="M345.12,180.15a10.78,10.78,0,1,1,10.78-10.78,11.43,11.43,0,0,1-.22,2.18,1.14,1.14,0,0,0,.15.85H358a1.13,1.13,0,0,0,.14-.36,13.25,13.25,0,1,0-13,10.58,1.24,1.24,0,1,0,0-2.47Z" style="fill:#263238"></path><path d="M350,180.15a10.78,10.78,0,1,1,10.78-10.78,11.25,11.25,0,0,1-.22,2.17,1.16,1.16,0,0,0,.15.86h2.13A1.13,1.13,0,0,0,363,172a13.25,13.25,0,1,0-13,10.58,1.24,1.24,0,1,0,0-2.47Z" style="fill:#263238"></path><path d="M381,180.15a10.78,10.78,0,1,1,10.78-10.78,10.51,10.51,0,0,1-.22,2.17,1.24,1.24,0,0,0,.15.87h2.13A1.09,1.09,0,0,0,394,172a13.25,13.25,0,1,0-13,10.58,1.24,1.24,0,1,0,0-2.47Z" style="fill:#263238"></path><path d="M385.93,180.15a10.78,10.78,0,1,1,10.78-10.78,10.44,10.44,0,0,1-.22,2.17,1.24,1.24,0,0,0,.15.87h2.13a1.09,1.09,0,0,0,.14-.37,13.25,13.25,0,1,0-13,10.58,1.24,1.24,0,1,0,0-2.47Z" style="fill:#263238"></path><path d="M416.91,180.15a10.78,10.78,0,1,1,10.77-10.78,10.44,10.44,0,0,1-.22,2.17,1.25,1.25,0,0,0,0,.58h2.37l0-.08a14,14,0,0,0,.27-2.67,13.25,13.25,0,1,0-13.25,13.25,1.24,1.24,0,0,0,0-2.47Z" style="fill:#263238"></path><path d="M421.83,180.15a10.78,10.78,0,1,1,10.77-10.78,10.44,10.44,0,0,1-.22,2.17,1.25,1.25,0,0,0,0,.58h2.37l0-.08a13.25,13.25,0,1,0-13,10.58,1.24,1.24,0,0,0,0-2.47Z" style="fill:#263238"></path><path d="M385.65,245.72c-19.95,0-36.19-9.62-36.19-21.45s16.24-21.45,36.19-21.45,36.19,9.62,36.19,21.45S405.6,245.72,385.65,245.72Zm0-41.9c-19.4,0-35.19,9.17-35.19,20.45s15.79,20.45,35.19,20.45,35.19-9.17,35.19-20.45S405.05,203.82,385.65,203.82Z" style="fill:#263238"></path><path d="M410.75,359c-18.31,0-33.2-10.87-33.2-24.22s14.89-24.21,33.2-24.21,33.19,10.86,33.19,24.21S429.05,359,410.75,359Zm0-47.43c-17.75,0-32.2,10.41-32.2,23.21S393,358,410.75,358s32.19-10.42,32.19-23.22S428.5,311.58,410.75,311.58Z" style="fill:#263238"></path><path d="M288.26,240.2c-14.5,0-26.29-8.7-26.29-19.38s11.79-19.38,26.29-19.38,26.28,8.69,26.28,19.38S302.75,240.2,288.26,240.2Zm0-37.76c-13.95,0-25.29,8.24-25.29,18.38s11.34,18.38,25.29,18.38,25.28-8.25,25.28-18.38S302.2,202.44,288.26,202.44Z" style="fill:#263238"></path><rect x="390.49" y="255.78" width="34.08" height="1" style="fill:#263238"></rect><rect x="390.49" y="260.38" width="34.08" height="1" style="fill:#263238"></rect><rect x="390.49" y="264.49" width="34.08" height="2" style="fill:#3F78F7"></rect><rect x="393.71" y="329.46" width="34.08" height="1" style="fill:#263238"></rect><rect x="393.71" y="334.06" width="34.08" height="1" style="fill:#263238"></rect><rect x="393.71" y="338.67" width="34.08" height="1" style="fill:#263238"></rect><path d="M393.2,347.9l-.25-2c.19,0,19.91-2.47,41.77-3.51l.09,2C413,345.44,393.39,347.88,393.2,347.9Z" style="fill:#3F78F7"></path><rect x="369.76" y="218.94" width="34.08" height="1" style="fill:#263238"></rect><rect x="368.36" y="221.99" width="35.87" height="2" transform="translate(-9.83 17.96) rotate(-2.63)" style="fill:#3F78F7"></rect><rect x="368.19" y="224.81" width="35.87" height="1" transform="translate(-10.14 18.35) rotate(-2.69)" style="fill:#3F78F7"></rect><rect x="369.76" y="228.15" width="34.08" height="1" style="fill:#263238"></rect><rect x="391.41" y="377.35" width="34.08" height="1" style="fill:#263238"></rect><rect x="391.41" y="381.95" width="34.08" height="1" style="fill:#263238"></rect><rect x="391.41" y="386.06" width="34.08" height="2" style="fill:#3F78F7"></rect><rect x="391.41" y="393" width="34.08" height="1" style="fill:#263238"></rect><rect x="391.41" y="397.61" width="34.08" height="1" style="fill:#263238"></rect><rect x="391.41" y="401.71" width="34.08" height="2" style="fill:#3F78F7"></rect><rect x="275.36" y="216.17" width="25.79" height="1" style="fill:#263238"></rect><rect x="275.36" y="220.78" width="25.79" height="1" style="fill:#263238"></rect><rect x="275.36" y="225.38" width="25.79" height="1" style="fill:#263238"></rect><rect x="406.1" y="282.39" width="1" height="29.29" transform="translate(-67.44 127.22) rotate(-16.44)" style="fill:#263238"></rect><polygon points="400.19 289.95 399.2 289.83 400.72 277.69 409.28 287.26 408.53 287.92 401.44 279.99 400.19 289.95" style="fill:#263238"></polygon><path d="M350.19,206.52c-23.85-12.6-43.05-.6-43.24-.48l-.54-.84c.19-.13,19.87-12.44,44.25.44Z" style="fill:#263238"></path><polygon points="354.76 207.96 342.13 207.96 342.13 206.96 352.53 206.96 345.9 199.51 346.65 198.84 354.76 207.96" style="fill:#263238"></polygon></g><g id="freepik--Books--inject-58"><path d="M160.21,468V446.54A12.54,12.54,0,0,0,147.67,434H266a12.55,12.55,0,0,1,12.55,12.55V468A12.55,12.55,0,0,1,266,480.51H147.67A12.54,12.54,0,0,0,160.21,468Z" style="fill:#263238"></path><path d="M266,481H147.67a.5.5,0,0,1-.5-.5.5.5,0,0,1,.5-.5,12.05,12.05,0,0,0,12-12.05V446.54a12.06,12.06,0,0,0-12-12.05.5.5,0,0,1-.5-.5.5.5,0,0,1,.5-.5H266A13.07,13.07,0,0,1,279,446.54V468A13.07,13.07,0,0,1,266,481Zm-113.32-1H266A12.06,12.06,0,0,0,278,468V446.54A12.07,12.07,0,0,0,266,434.49H152.67a13.07,13.07,0,0,1,8,12.05V468A13.07,13.07,0,0,1,152.67,480Z" style="fill:#263238"></path><path d="M42.3,435.69l-1.41-.92a.42.42,0,0,1,.23-.78H147.67a12.54,12.54,0,0,1,12.54,12.55V468a12.54,12.54,0,0,1-12.54,12.55H41.12a.42.42,0,0,1-.23-.77l1.41-.93Z" style="fill:#949494"></path><path d="M147.67,481H41.12a.92.92,0,0,1-.5-1.69l1.18-.78V436l-1.18-.78a.9.9,0,0,1-.38-1,.92.92,0,0,1,.88-.66H147.67a13.06,13.06,0,0,1,13,13.05V468A13.06,13.06,0,0,1,147.67,481ZM41.39,480H147.67a12.05,12.05,0,0,0,12-12.05V446.54a12.06,12.06,0,0,0-12-12.05H41.39l1.19.78a.51.51,0,0,1,.22.42v43.12a.5.5,0,0,1-.22.42Z" style="fill:#263238"></path><path d="M57.75,435.69H157.89a0,0,0,0,1,0,0v43.12a0,0,0,0,1,0,0H57.75A15.45,15.45,0,0,1,42.3,463.36V451.14A15.45,15.45,0,0,1,57.75,435.69Z" transform="translate(200.19 914.51) rotate(180)" style="fill:#fff"></path><path d="M142.44,479.31H42.3a.5.5,0,0,1-.5-.5V435.69a.51.51,0,0,1,.5-.5H142.44a16,16,0,0,1,15.95,15.95v12.22A16,16,0,0,1,142.44,479.31Zm-99.64-1h99.64a15,15,0,0,0,14.95-14.95V451.14a15,15,0,0,0-14.95-14.95H42.8Z" style="fill:#263238"></path><path d="M154.27,444.13H112.7a.5.5,0,0,1,0-1h41.57a.5.5,0,0,1,0,1Z" style="fill:#263238"></path><path d="M123.62,448.08H84.83a.51.51,0,0,1-.5-.5.5.5,0,0,1,.5-.5h38.79a.5.5,0,0,1,.5.5A.51.51,0,0,1,123.62,448.08Z" style="fill:#263238"></path><path d="M137.32,453H100.16a.5.5,0,0,1-.5-.5.5.5,0,0,1,.5-.5h37.16a.5.5,0,0,1,.5.5A.5.5,0,0,1,137.32,453Z" style="fill:#263238"></path><path d="M153.34,467.82H129a.5.5,0,0,1-.5-.5.5.5,0,0,1,.5-.5h24.38a.5.5,0,0,1,.5.5A.5.5,0,0,1,153.34,467.82Z" style="fill:#263238"></path><path d="M135.23,471.3H98.77a.5.5,0,0,1-.5-.5.5.5,0,0,1,.5-.5h36.46a.5.5,0,0,1,.5.5A.5.5,0,0,1,135.23,471.3Z" style="fill:#263238"></path><path d="M139.64,474.55h-9.75a.5.5,0,0,1-.5-.5.5.5,0,0,1,.5-.5h9.75a.5.5,0,0,1,.5.5A.5.5,0,0,1,139.64,474.55Z" style="fill:#263238"></path><path d="M112.24,464.57h-62a.5.5,0,0,1-.5-.5.5.5,0,0,1,.5-.5h62a.5.5,0,0,1,.5.5A.51.51,0,0,1,112.24,464.57Z" style="fill:#263238"></path><path d="M55.8,454.58H43a.5.5,0,0,1,0-1H55.8a.5.5,0,1,1,0,1Z" style="fill:#263238"></path><path d="M58.12,451.33h-13a.5.5,0,0,1-.5-.5.5.5,0,0,1,.5-.5h13a.5.5,0,0,1,.5.5A.5.5,0,0,1,58.12,451.33Z" style="fill:#263238"></path><path d="M77.63,472.23H45.12a.5.5,0,0,1,0-1H77.63a.5.5,0,0,1,0,1Z" style="fill:#263238"></path><path d="M165.8,421.22V399.8a12.55,12.55,0,0,0-12.55-12.55H271.57a12.55,12.55,0,0,1,12.55,12.55v21.42a12.55,12.55,0,0,1-12.55,12.55H153.25A12.55,12.55,0,0,0,165.8,421.22Z" style="fill:#8c8c8c"></path><path d="M271.57,434.27H153.25a.5.5,0,0,1,0-1,12.06,12.06,0,0,0,12.05-12V399.8a12.07,12.07,0,0,0-12.05-12.05.5.5,0,0,1-.5-.5.5.5,0,0,1,.5-.5H271.57a13.07,13.07,0,0,1,13.05,13.05v21.42A13.06,13.06,0,0,1,271.57,434.27Zm-113.31-1H271.57a12.06,12.06,0,0,0,12.05-12V399.8a12.07,12.07,0,0,0-12.05-12.05H158.26a13.08,13.08,0,0,1,8,12.05v21.42A13.08,13.08,0,0,1,158.26,433.27Z" style="fill:#263238"></path><path d="M47.89,389,46.47,388a.42.42,0,0,1,.23-.77H153.25A12.55,12.55,0,0,1,165.8,399.8v21.42a12.55,12.55,0,0,1-12.55,12.55H46.7a.42.42,0,0,1-.23-.77l1.42-.93Z" style="fill:#949494"></path><path d="M153.25,434.27H46.7a.91.91,0,0,1-.88-.66.93.93,0,0,1,.38-1l1.19-.78V389.22l-1.19-.78a.92.92,0,0,1,.5-1.69H153.25A13.07,13.07,0,0,1,166.3,399.8v21.42A13.07,13.07,0,0,1,153.25,434.27ZM47,433.27H153.25a12.06,12.06,0,0,0,12.05-12V399.8a12.07,12.07,0,0,0-12.05-12.05H47l1.19.78a.52.52,0,0,1,.23.42v43.12a.5.5,0,0,1-.23.42Zm-.27-45.52Z" style="fill:#263238"></path><path d="M62.26,389H163.47a0,0,0,0,1,0,0v43.12a0,0,0,0,1,0,0H62.26A14.37,14.37,0,0,1,47.89,417.7V403.32A14.37,14.37,0,0,1,62.26,389Z" transform="translate(211.36 821.02) rotate(180)" style="fill:#fff"></path><path d="M149.1,432.57H47.89a.5.5,0,0,1-.5-.5V389a.5.5,0,0,1,.5-.5H149.1A14.89,14.89,0,0,1,164,403.32V417.7A14.89,14.89,0,0,1,149.1,432.57Zm-100.71-1H149.1A13.88,13.88,0,0,0,163,417.7V403.32a13.88,13.88,0,0,0-13.87-13.87H48.39Z" style="fill:#263238"></path><path d="M159.86,397.39H118.28a.51.51,0,0,1-.5-.5.5.5,0,0,1,.5-.5h41.58a.5.5,0,0,1,.5.5A.51.51,0,0,1,159.86,397.39Z" style="fill:#263238"></path><path d="M129.2,401.34H90.42a.5.5,0,0,1-.5-.5.5.5,0,0,1,.5-.5H129.2a.5.5,0,0,1,.5.5A.5.5,0,0,1,129.2,401.34Z" style="fill:#263238"></path><path d="M142.9,406.21H105.74a.5.5,0,0,1-.5-.5.51.51,0,0,1,.5-.5H142.9a.5.5,0,0,1,.5.5A.5.5,0,0,1,142.9,406.21Z" style="fill:#263238"></path><path d="M158.93,421.08H134.54a.5.5,0,0,1-.5-.5.5.5,0,0,1,.5-.5h24.39a.5.5,0,0,1,.5.5A.51.51,0,0,1,158.93,421.08Z" style="fill:#263238"></path><path d="M140.81,424.56H104.35a.5.5,0,1,1,0-1h36.46a.5.5,0,0,1,0,1Z" style="fill:#263238"></path><path d="M145.22,427.81h-9.75a.5.5,0,0,1-.5-.5.5.5,0,0,1,.5-.5h9.75a.5.5,0,0,1,.5.5A.5.5,0,0,1,145.22,427.81Z" style="fill:#263238"></path><path d="M117.82,417.83h-62a.5.5,0,0,1-.5-.5.5.5,0,0,1,.5-.5h62a.5.5,0,0,1,.5.5A.5.5,0,0,1,117.82,417.83Z" style="fill:#263238"></path><path d="M61.38,407.84H48.61a.5.5,0,0,1,0-1H61.38a.5.5,0,0,1,0,1Z" style="fill:#263238"></path><path d="M63.71,404.59h-13a.5.5,0,0,1-.5-.5.5.5,0,0,1,.5-.5h13a.5.5,0,0,1,.5.5A.51.51,0,0,1,63.71,404.59Z" style="fill:#263238"></path><path d="M83.22,425.49H50.7a.5.5,0,1,1,0-1H83.22a.5.5,0,1,1,0,1Z" style="fill:#263238"></path><polygon points="67.66 458.55 77.22 448.99 86.75 458.55 86.75 404.06 67.66 404.06 67.66 458.55" style="fill:#263238"></polygon><path d="M86.75,459.05a.47.47,0,0,1-.35-.15l-9.18-9.2L68,458.9a.53.53,0,0,1-.55.11.51.51,0,0,1-.31-.46V404.06a.5.5,0,0,1,.5-.5H86.75a.5.5,0,0,1,.5.5v54.49a.5.5,0,0,1-.31.46A.58.58,0,0,1,86.75,459.05ZM68.16,404.56v52.78l8.7-8.7a.55.55,0,0,1,.36-.15h0a.51.51,0,0,1,.35.15l8.68,8.7V404.56Z" style="fill:#263238"></path></g></svg>