<svg width="93" height="24" viewBox="0 0 93 24" fill="none" xmlns="http://www.w3.org/2000/svg">
<path d="M30.5854 20.256V3.45599H33.6574V20.256H30.5854Z" fill="#03045E"/>
<path d="M35.6416 20.256V8.35199H38.3536L38.5936 10.368C38.9616 9.66399 39.4896 9.10399 40.1776 8.68799C40.8816 8.27199 41.7056 8.06399 42.6496 8.06399C44.1216 8.06399 45.2656 8.52799 46.0816 9.45599C46.8976 10.384 47.3056 11.744 47.3056 13.536V20.256H44.2336V13.824C44.2336 12.8 44.0256 12.016 43.6096 11.472C43.1936 10.928 42.5456 10.656 41.6656 10.656C40.8016 10.656 40.0896 10.96 39.5296 11.568C38.9856 12.176 38.7136 13.024 38.7136 14.112V20.256H35.6416Z" fill="#03045E"/>
<path d="M52.1419 20.256L47.7739 8.35199H50.9899L54.0139 17.352L57.0379 8.35199H60.2539L55.8619 20.256H52.1419Z" fill="#03045E"/>
<path d="M66.1896 20.544C64.9896 20.544 63.9256 20.288 62.9976 19.776C62.0696 19.264 61.3416 18.544 60.8136 17.616C60.2856 16.688 60.0216 15.616 60.0216 14.4C60.0216 13.168 60.2776 12.072 60.7896 11.112C61.3176 10.152 62.0376 9.40799 62.9496 8.87999C63.8776 8.33599 64.9656 8.06399 66.2136 8.06399C67.3816 8.06399 68.4136 8.31999 69.3096 8.832C70.2056 9.34399 70.9016 10.048 71.3976 10.944C71.9096 11.824 72.1656 12.808 72.1656 13.896C72.1656 14.072 72.1576 14.256 72.1416 14.448C72.1416 14.64 72.1336 14.84 72.1176 15.048H63.0696C63.1336 15.976 63.4536 16.704 64.0296 17.232C64.6216 17.76 65.3336 18.024 66.1656 18.024C66.7896 18.024 67.3096 17.888 67.7256 17.616C68.1576 17.328 68.4776 16.96 68.6856 16.512H71.8056C71.5816 17.264 71.2056 17.952 70.6776 18.576C70.1656 19.184 69.5256 19.664 68.7576 20.016C68.0056 20.368 67.1496 20.544 66.1896 20.544ZM66.2136 10.56C65.4616 10.56 64.7976 10.776 64.2216 11.208C63.6456 11.624 63.2776 12.264 63.1176 13.128H69.0456C68.9976 12.344 68.7096 11.72 68.1816 11.256C67.6536 10.792 66.9976 10.56 66.2136 10.56Z" fill="#03045E"/>
<path d="M78.4694 20.544C77.4134 20.544 76.4854 20.376 75.6854 20.04C74.8854 19.688 74.2454 19.208 73.7654 18.6C73.2854 17.992 72.9974 17.288 72.9014 16.488H75.9974C76.0934 16.952 76.3494 17.352 76.7654 17.688C77.1974 18.008 77.7494 18.168 78.4214 18.168C79.0934 18.168 79.5814 18.032 79.8854 17.76C80.2054 17.488 80.3654 17.176 80.3654 16.824C80.3654 16.312 80.1414 15.968 79.6934 15.792C79.2454 15.6 78.6214 15.416 77.8214 15.24C77.3094 15.128 76.7894 14.992 76.2614 14.832C75.7334 14.672 75.2454 14.472 74.7974 14.232C74.3654 13.976 74.0134 13.656 73.7414 13.272C73.4694 12.872 73.3334 12.384 73.3334 11.808C73.3334 10.752 73.7494 9.86399 74.5814 9.14399C75.4294 8.42399 76.6134 8.06399 78.1334 8.06399C79.5414 8.06399 80.6614 8.39199 81.4934 9.04799C82.3414 9.70399 82.8454 10.608 83.0054 11.76H80.1014C79.9254 10.88 79.2614 10.44 78.1094 10.44C77.5334 10.44 77.0854 10.552 76.7654 10.776C76.4614 11 76.3094 11.28 76.3094 11.616C76.3094 11.968 76.5414 12.248 77.0054 12.456C77.4694 12.664 78.0854 12.856 78.8534 13.032C79.6854 13.224 80.4454 13.44 81.1334 13.68C81.8374 13.904 82.3974 14.248 82.8134 14.712C83.2294 15.16 83.4374 15.808 83.4374 16.656C83.4534 17.392 83.2614 18.056 82.8614 18.648C82.4614 19.24 81.8854 19.704 81.1334 20.04C80.3814 20.376 79.4934 20.544 78.4694 20.544Z" fill="#03045E"/>
<path d="M89.8877 20.256C88.6397 20.256 87.6397 19.952 86.8877 19.344C86.1357 18.736 85.7597 17.656 85.7597 16.104V10.92H83.7197V8.35199H85.7597L86.1197 5.15999H88.8317V8.35199H92.0477V10.92H88.8317V16.128C88.8317 16.704 88.9517 17.104 89.1917 17.328C89.4477 17.536 89.8797 17.64 90.4877 17.64H91.9757V20.256H89.8877Z" fill="#03045E"/>
<path fill-rule="evenodd" clip-rule="evenodd" d="M12 24C18.6274 24 24 18.6274 24 12C24 5.37258 18.6274 0 12 0C5.37258 0 0 5.37258 0 12C0 13.0991 0.147754 14.1636 0.424481 15.1749L3.54154 12.4474C3.74246 12.2716 4.00535 12.1835 4.27165 12.2026C4.53795 12.2217 4.78555 12.3465 4.9593 12.5492L7.87635 15.9525L16.1583 8.13067L9.57515 7.94258C9.0231 7.92681 8.58835 7.46649 8.60412 6.91443C8.6199 6.36237 9.08021 5.92762 9.63227 5.94339L18.6286 6.20043C19.1807 6.21621 19.6154 6.67653 19.5996 7.22858L19.3426 16.2249C19.3268 16.777 18.8665 17.2117 18.3144 17.1959C17.7624 17.1802 17.3276 16.7199 17.3434 16.1678L17.5315 9.58469L8.48667 18.127C8.28777 18.3149 8.0206 18.413 7.7474 18.3986C7.4742 18.3842 7.21883 18.2585 7.04079 18.0508L4.09825 14.6179L1.1718 17.1785C3.10498 21.2135 7.22708 24 12 24Z" fill="#0096C7"/>
</svg>
