<svg width="87" height="87" viewBox="0 0 87 87" fill="none" xmlns="http://www.w3.org/2000/svg">
<path d="M70 26.1006C68.051 26.9625 65.9572 27.5449 63.7561 27.8081C66.0272 26.4519 67.7264 24.3172 68.5365 21.8026C66.4027 23.0675 64.0673 23.9579 61.6319 24.435C59.9942 22.6898 57.825 21.5331 55.4611 21.1444C53.0972 20.7557 50.6708 21.1568 48.5587 22.2854C46.4466 23.414 44.7669 25.2069 43.7805 27.3858C42.794 29.5647 42.5559 32.0077 43.1032 34.3355C38.7795 34.1189 34.5499 32.9973 30.6887 31.0437C26.8274 29.09 23.421 26.3479 20.6903 22.9953C19.7567 24.6027 19.2198 26.4663 19.2198 28.4511C19.2188 30.2378 19.6596 31.9972 20.5033 33.5731C21.347 35.1491 22.5674 36.4928 24.0562 37.4851C22.3296 37.4302 20.641 36.9646 19.1311 36.127V36.2667C19.1309 38.7727 19.9995 41.2016 21.5894 43.1412C23.1794 45.0808 25.3927 46.4117 27.854 46.9081C26.2522 47.3407 24.5729 47.4045 22.9428 47.0945C23.6372 49.2507 24.9899 51.1363 26.8114 52.4872C28.633 53.8381 30.8322 54.5867 33.1012 54.6282C29.2494 57.6459 24.4925 59.2829 19.5956 59.2757C18.7282 59.2759 17.8615 59.2253 17 59.1242C21.9706 62.3138 27.7567 64.0066 33.6661 64C53.67 64 64.6057 47.4649 64.6057 33.1242C64.6057 32.6583 64.594 32.1877 64.573 31.7218C66.7001 30.1865 68.5363 28.2855 69.9953 26.1076L70 26.1006V26.1006Z" fill="white"/>
<g filter="url(#filter0_bii_202_29)">
<circle cx="43.5" cy="43.5" r="43.5" fill="#0096C7"/>
</g>
<path d="M66 30.9144C64.4922 31.5759 62.8725 32.0228 61.1698 32.2249C62.9267 31.184 64.2412 29.5458 64.8678 27.6159C63.2172 28.5867 61.4106 29.27 59.5266 29.6361C58.2597 28.2968 56.5816 27.4091 54.7529 27.1108C52.9243 26.8125 51.0473 27.1203 49.4134 27.9865C47.7795 28.8526 46.4801 30.2285 45.717 31.9007C44.9538 33.5729 44.7697 35.4478 45.193 37.2342C41.8483 37.068 38.5763 36.2072 35.5893 34.7079C32.6024 33.2086 29.9672 31.1042 27.8548 28.5313C27.1325 29.7649 26.7172 31.1951 26.7172 32.7183C26.7164 34.0895 27.0575 35.4397 27.7101 36.6492C28.3628 37.8586 29.3069 38.8898 30.4586 39.6513C29.1229 39.6093 27.8166 39.2519 26.6486 38.6091V38.7163C26.6485 40.6395 27.3204 42.5035 28.5503 43.9921C29.7803 45.4806 31.4925 46.502 33.3965 46.883C32.1574 47.215 30.8583 47.2639 29.5973 47.026C30.1345 48.6808 31.1809 50.1278 32.59 51.1646C33.9991 52.2013 35.7004 52.7758 37.4557 52.8077C34.476 55.1236 30.7961 56.3799 27.0079 56.3743C26.3369 56.3745 25.6664 56.3357 25 56.2581C28.8452 58.7059 33.3212 60.005 37.8926 60C53.3674 60 61.8271 47.3102 61.8271 36.3046C61.8271 35.947 61.818 35.5859 61.8018 35.2283C63.4473 34.0501 64.8677 32.5912 65.9964 30.9198L66 30.9144V30.9144Z" fill="white"/>
<defs>
<filter id="filter0_bii_202_29" x="-30" y="-30" width="147" height="147" filterUnits="userSpaceOnUse" color-interpolation-filters="sRGB">
<feFlood flood-opacity="0" result="BackgroundImageFix"/>
<feGaussianBlur in="BackgroundImageFix" stdDeviation="15"/>
<feComposite in2="SourceAlpha" operator="in" result="effect1_backgroundBlur_202_29"/>
<feBlend mode="normal" in="SourceGraphic" in2="effect1_backgroundBlur_202_29" result="shape"/>
<feColorMatrix in="SourceAlpha" type="matrix" values="0 0 0 0 0 0 0 0 0 0 0 0 0 0 0 0 0 0 127 0" result="hardAlpha"/>
<feOffset dy="2"/>
<feGaussianBlur stdDeviation="2"/>
<feComposite in2="hardAlpha" operator="arithmetic" k2="-1" k3="1"/>
<feColorMatrix type="matrix" values="0 0 0 0 1 0 0 0 0 1 0 0 0 0 1 0 0 0 0.1 0"/>
<feBlend mode="normal" in2="shape" result="effect2_innerShadow_202_29"/>
<feColorMatrix in="SourceAlpha" type="matrix" values="0 0 0 0 0 0 0 0 0 0 0 0 0 0 0 0 0 0 127 0" result="hardAlpha"/>
<feOffset dy="-5"/>
<feGaussianBlur stdDeviation="6"/>
<feComposite in2="hardAlpha" operator="arithmetic" k2="-1" k3="1"/>
<feColorMatrix type="matrix" values="0 0 0 0 0.113725 0 0 0 0 0.631373 0 0 0 0 0.94902 0 0 0 0.35 0"/>
<feBlend mode="normal" in2="effect2_innerShadow_202_29" result="effect3_innerShadow_202_29"/>
</filter>
</defs>
</svg>
